# xmcd
# 
# Track frame offsets:
#     150
#     20310
#     41275
#     61432
# 
# Disc length: 1095
# 
# Revision: 2
# Processed by: cddbd v1.5.2PL0 Copyright (c) Steve Scherf et al.
# Submitted via: BonkEnc v1.0.6
# 
DISCID=27044504
DTITLE=大黒 摩季 - ら・ら・ら
DYEAR=2001
DGENRE=JPop
TTITLE0=ら・ら・ら
TTITLE1=恋はメリーゴーランド
TTITLE2=ら・ら・ら (Original Karaoke)
TTITLE3=恋はメリーゴーランド (Original Karaoke)
EXTD=YEAR: 2001
EXTT0=
EXTT1=
EXTT2=
EXTT3=
PLAYORDER=
